<svg xmlns="http://www.w3.org/2000/svg" width="215" height="129" viewBox="0 0 215 129" fill="none"><path fill-rule="evenodd" clip-rule="evenodd" d="M62.6776 62.439C62.78 63.1206 62.8572 63.8005 62.8572 64.4977C62.8572 73.5989 53.8886 81.0004 42.9151 81.0004C41.3004 81.0004 39.7238 80.8547 38.2184 80.5287C38.8436 79.2244 40.2424 76.315 42.511 71.0823C45.828 63.4284 39.8348 63.1084 39.8348 63.1084L39.9684 62.439H62.6776Z" fill="#F04D24"></path><path fill-rule="evenodd" clip-rule="evenodd" d="M42.9152 48C51.7744 48 59.3 52.8242 61.8825 59.4479H40.363L31.5722 78.0666C26.4037 75.0617 23 70.1074 23 64.4975C23 55.4059 31.9408 48 42.9152 48ZM192 54.7026H175.801C175.801 54.7026 164.872 54.2117 163.495 65.8712C162.118 77.5324 168.038 79.4359 173.775 79.4359H186.517L187.343 76.2055H175.924C175.924 76.2055 170.431 75.7338 171.26 67.844C171.269 67.779 171.277 67.7157 171.277 67.6706H187.814L188.712 64.8522H171.73C172.916 59.3282 175.499 57.5704 179.212 57.5704H191.102L192 54.7026ZM164.255 54.7026H148.069C148.069 54.7026 137.129 54.2117 135.755 65.8712C134.377 77.5324 140.285 79.4359 146.032 79.4359H158.763L159.59 76.2055H148.176C148.176 76.2055 142.678 75.7338 143.504 67.844C143.526 67.7887 143.537 67.73 143.538 67.6706H160.076L160.966 64.8522H143.986C145.172 59.3282 147.77 57.5704 151.481 57.5704H163.363L164.255 54.7026ZM108.222 54.7026H127.687C127.687 54.7026 135.651 54.3904 134.365 60.9724C133.056 67.5778 127.501 67.8284 126.21 67.8284L132.541 79.4757H126.783C126.783 79.4757 123.747 80.4409 121.098 75.5326C118.446 70.6147 115.351 64.7967 115.351 64.7967H121.098C121.098 64.7967 125.235 64.9147 126.403 61.6982C127.563 58.4593 125.171 57.7412 123.223 57.7412H115.663L109.711 79.6093H101.569L108.222 54.7026ZM103.994 54.6332H84.7079C84.7079 54.6332 74.3866 54.4372 71.1866 66.2276C71.1866 66.2276 67.0683 78.0267 79.1908 79.4324H93.4909C93.4909 79.4324 97.9084 80.1999 99.7572 72.8946C101.623 65.585 101.746 64.7594 101.746 64.7594H87.842L86.7588 68.0929H93.2871L91.6108 73.9205C91.6108 73.9205 91.1746 76.0495 89.4341 76.1579C87.7084 76.2966 83.2207 76.1579 83.2207 76.1579C83.2207 76.1579 79.1908 76.3712 78.8023 71.8843C78.4208 67.3801 80.7301 58.1028 87.9616 58.1028H102.822L103.994 54.6332Z" fill="#034DA2"></path></svg>